<svg id="레이어_5" data-name="레이어 5" xmlns="http://www.w3.org/2000/svg" viewBox="0 0 720 107.78"><rect x="244.99" y="5.49" width="97.75" height="29.03"/><rect x="244.99" y="74.33" width="97.75" height="29.03"/><rect x="244.99" y="42.95" width="74.95" height="21.89"/><polygon points="163.41 46.07 122.93 5.59 107.45 21.07 147.93 61.55 135.86 73.62 166.81 104.58 235.67 35.72 204.71 4.77 163.41 46.07"/><polygon points="556.55 43.82 518.7 5.97 518.7 5.88 518.61 5.88 518.49 5.76 518.38 5.88 474.92 5.88 474.92 103.62 518.7 103.62 518.7 36.93 556.48 74.7 556.55 74.62 556.55 103.62 600.33 103.62 600.33 5.88 556.55 5.88 556.55 43.82"/><path d="M549.88,441a53.89,53.89,0,1,0,53.89,53.89A53.89,53.89,0,0,0,549.88,441Zm0,78.1a24.21,24.21,0,1,1,24.21-24.21A24.21,24.21,0,0,1,549.88,519.11Z" transform="translate(-140.43 -441.01)"/><path d="M246,484.73H194.32V501.6h23.26a24.21,24.21,0,1,1-23.26-30.91c.83,0,1.64,0,2.44.12v-.12h21.77V441H194.32c-1.34,0-2.66.06-4,.16a53.89,53.89,0,1,0,56.9,43.56Z" transform="translate(-140.43 -441.01)"/><path d="M859.46,484.73H806.54V501.6H829.8a24.21,24.21,0,1,1-23.26-30.91c.82,0,1.64,0,2.44.12v-.12h21.77V441H806.54c-1.34,0-2.66.06-4,.16a53.89,53.89,0,1,0,56.9,43.56Z" transform="translate(-140.43 -441.01)"/></svg>