<?xml version="1.0" standalone="no"?>
<!DOCTYPE svg PUBLIC "-//W3C//DTD SVG 20010904//EN"
 "http://www.w3.org/TR/2001/REC-SVG-20010904/DTD/svg10.dtd">
<svg version="1.0" xmlns="http://www.w3.org/2000/svg"
 width="1497.000000pt" height="1497.000000pt" viewBox="0 0 1497.000000 1497.000000"
 preserveAspectRatio="xMidYMid meet">
<metadata>
Created by potrace 1.14, written by Peter Selinger 2001-2017
</metadata>
<g transform="translate(0.000000,1497.000000) scale(0.100000,-0.100000)"
fill="#000000" stroke="none">
<path d="M7169 14966 c-2 -2 -57 -7 -123 -10 -65 -4 -135 -9 -155 -11 -20 -2
-67 -7 -106 -10 -120 -11 -302 -32 -346 -40 -9 -2 -40 -6 -69 -10 -29 -4 -62
-9 -74 -11 -12 -2 -32 -6 -46 -9 -14 -2 -65 -11 -115 -20 -49 -9 -103 -19
-120 -21 -16 -3 -79 -17 -140 -30 -60 -14 -121 -27 -135 -30 -14 -3 -34 -8
-45 -11 -11 -4 -24 -8 -30 -9 -30 -5 -259 -69 -361 -100 -533 -160 -1149 -431
-1598 -701 -49 -29 -90 -53 -92 -53 -6 0 -344 -219 -354 -230 -3 -3 -32 -23
-65 -45 -140 -94 -562 -426 -661 -520 -6 -5 -53 -48 -104 -95 -254 -232 -593
-593 -770 -820 -46 -60 -53 -69 -65 -83 -125 -152 -390 -534 -508 -732 -192
-324 -333 -599 -484 -945 -8 -19 -21 -48 -29 -64 -8 -16 -14 -33 -14 -38 0 -4
-9 -27 -20 -51 -10 -23 -25 -60 -33 -82 -24 -67 -68 -189 -77 -210 -36 -86
-179 -566 -205 -685 -2 -8 -18 -76 -35 -150 -17 -74 -33 -151 -36 -170 -3 -19
-9 -51 -14 -70 -5 -19 -14 -69 -20 -110 -7 -41 -14 -84 -16 -95 -2 -10 -6 -37
-9 -60 -4 -22 -8 -51 -10 -65 -2 -14 -6 -45 -10 -70 -3 -25 -8 -56 -10 -70 -5
-29 -15 -119 -29 -285 -20 -222 -26 -378 -27 -650 -1 -197 7 -437 16 -525 2
-25 7 -79 10 -120 4 -41 8 -96 10 -121 4 -48 23 -207 30 -249 2 -14 7 -45 10
-70 16 -118 74 -435 100 -545 8 -34 16 -69 21 -95 3 -14 12 -52 21 -85 8 -33
17 -67 18 -75 38 -162 176 -593 254 -795 32 -80 35 -88 65 -157 9 -20 16 -39
16 -43 0 -4 14 -36 30 -72 17 -35 30 -66 30 -68 0 -14 174 -370 243 -500 161
-299 390 -665 543 -868 24 -31 44 -59 44 -62 0 -3 6 -13 14 -22 8 -10 68 -85
133 -168 66 -82 126 -157 134 -165 8 -8 27 -31 43 -50 217 -266 625 -668 935
-920 23 -19 55 -45 69 -58 15 -13 99 -77 187 -143 88 -66 167 -126 175 -132
59 -47 543 -357 556 -357 2 0 23 -12 47 -27 90 -57 548 -292 652 -335 22 -9
94 -40 160 -68 465 -201 1083 -386 1555 -466 25 -4 47 -8 50 -9 3 -1 25 -5 50
-9 25 -5 52 -10 61 -11 9 -2 40 -7 70 -10 30 -4 63 -9 74 -11 47 -7 94 -13
145 -18 30 -4 71 -9 90 -11 195 -26 483 -40 825 -39 270 0 499 7 610 19 22 2
71 7 108 10 37 4 76 8 85 9 9 2 49 7 87 11 39 4 77 8 85 10 28 5 125 18 145
20 21 1 63 9 150 25 28 5 65 12 83 15 29 5 343 70 382 79 194 47 474 128 670
194 170 58 233 82 312 116 20 9 39 16 43 16 4 0 35 12 69 26 33 15 75 32 91
39 263 113 686 323 777 387 14 10 28 18 31 18 4 0 156 91 267 160 72 45 275
183 370 251 84 60 332 250 340 259 3 4 32 28 65 55 32 26 64 53 71 59 6 6 37
34 70 61 107 92 178 158 369 350 236 235 313 320 549 605 79 96 295 393 386
530 56 85 111 167 121 182 11 15 19 30 19 32 0 3 15 30 34 59 19 29 43 69 54
88 11 19 46 79 77 134 118 206 300 584 400 830 113 277 269 744 300 892 2 10
15 62 29 117 14 54 28 109 30 122 3 13 7 32 10 42 3 9 7 28 10 42 2 14 14 68
24 120 11 52 23 115 27 140 4 24 8 47 10 50 2 4 6 26 9 51 3 24 8 53 10 65 2
12 7 45 11 74 4 29 8 61 10 70 2 9 6 41 10 71 3 30 8 65 10 79 2 14 6 52 9 85
4 33 8 83 11 110 34 337 39 974 10 1265 -2 19 -6 73 -9 120 -4 47 -9 96 -11
110 -3 14 -7 48 -10 75 -11 104 -22 185 -39 285 -3 14 -10 59 -16 100 -15 94
-29 150 -38 150 -11 1 -7251 1 -7297 1 l-40 -1 0 -1170 0 -1170 1612 0 c887 0
1613 -3 1613 -6 0 -30 -123 -368 -142 -391 -6 -7 -8 -13 -4 -13 9 0 -136 -284
-194 -380 -52 -85 -157 -244 -184 -277 -8 -10 -52 -65 -98 -123 -46 -58 -148
-170 -228 -250 -542 -543 -1225 -875 -1987 -965 -177 -21 -551 -27 -678 -11
-27 4 -68 9 -90 11 -104 12 -136 16 -220 31 -49 9 -103 20 -120 24 -16 5 -42
11 -56 14 -67 11 -355 100 -424 131 -16 7 -66 27 -110 45 -101 40 -333 159
-450 232 -414 257 -801 635 -1050 1023 -21 33 -49 76 -62 96 -12 19 -23 40
-23 47 0 7 -3 12 -7 12 -5 0 -13 10 -19 23 -5 12 -33 65 -60 117 -90 171 -227
518 -248 625 -2 11 -9 40 -16 65 -7 25 -12 46 -12 47 0 2 -6 26 -14 55 -13 50
-36 171 -49 263 -4 22 -8 50 -10 63 -27 166 -27 703 1 847 2 11 6 40 9 65 3
25 14 90 25 145 11 55 22 110 24 122 12 59 95 340 115 388 5 11 26 63 46 115
96 240 208 443 392 710 23 33 169 216 208 259 97 110 279 283 410 390 90 73
271 201 285 201 4 0 10 3 12 8 8 18 254 155 392 218 55 25 115 52 131 60 30
14 217 82 245 90 8 2 71 20 140 39 69 20 141 38 160 41 19 3 37 7 40 9 7 4
171 33 232 41 24 3 54 7 68 10 113 18 519 26 668 12 45 -4 70 -3 67 3 -4 5
561 9 1508 9 l1515 0 0 2060 0 2061 -1838 -1 c-1011 -1 -1839 -3 -1841 -4z"/>
</g>
</svg>
